<svg xmlns="http://www.w3.org/2000/svg" width="900" height="560" viewBox="0 0 900 560">
<rect width="100%" height="100%" fill="#ffffff"/>
<text x="450.0" y="34" text-anchor="middle" font-family="Arial" font-size="24" font-weight="700">Correlacion de variables numericas</text>
<text x="142" y="108.3" text-anchor="end" font-family="Arial" font-size="11">price_mxn</text>
<text x="173.3" y="72" text-anchor="middle" font-family="Arial" font-size="10" transform="rotate(-45 173.3 72)">price_mxn</text>
<rect x="150.0" y="80.0" width="46.7" height="46.7" fill="rgb(210,110,60)" stroke="#fff"/>
<text x="173.3" y="107.3" text-anchor="middle" font-family="Arial" font-size="10">1.00</text>
<rect x="196.7" y="80.0" width="46.7" height="46.7" fill="rgb(198,110,71)" stroke="#fff"/>
<text x="220.0" y="107.3" text-anchor="middle" font-family="Arial" font-size="10">0.85</text>
<rect x="243.3" y="80.0" width="46.7" height="46.7" fill="rgb(189,110,80)" stroke="#fff"/>
<text x="266.7" y="107.3" text-anchor="middle" font-family="Arial" font-size="10">0.72</text>
<rect x="290.0" y="80.0" width="46.7" height="46.7" fill="rgb(194,110,75)" stroke="#fff"/>
<text x="313.3" y="107.3" text-anchor="middle" font-family="Arial" font-size="10">0.80</text>
<rect x="336.7" y="80.0" width="46.7" height="46.7" fill="rgb(187,110,82)" stroke="#fff"/>
<text x="360.0" y="107.3" text-anchor="middle" font-family="Arial" font-size="10">0.70</text>
<rect x="383.3" y="80.0" width="46.7" height="46.7" fill="rgb(181,110,88)" stroke="#fff"/>
<text x="406.7" y="107.3" text-anchor="middle" font-family="Arial" font-size="10">0.62</text>
<rect x="430.0" y="80.0" width="46.7" height="46.7" fill="rgb(148,110,121)" stroke="#fff"/>
<text x="453.3" y="107.3" text-anchor="middle" font-family="Arial" font-size="10">0.18</text>
<rect x="476.7" y="80.0" width="46.7" height="46.7" fill="rgb(132,110,137)" stroke="#fff"/>
<text x="500.0" y="107.3" text-anchor="middle" font-family="Arial" font-size="10">-0.03</text>
<rect x="523.3" y="80.0" width="46.7" height="46.7" fill="rgb(141,110,128)" stroke="#fff"/>
<text x="546.7" y="107.3" text-anchor="middle" font-family="Arial" font-size="10">0.09</text>
<text x="142" y="155.0" text-anchor="end" font-family="Arial" font-size="11">built_area_m2</text>
<text x="220.0" y="72" text-anchor="middle" font-family="Arial" font-size="10" transform="rotate(-45 220.0 72)">built_area_m2</text>
<rect x="150.0" y="126.7" width="46.7" height="46.7" fill="rgb(198,110,71)" stroke="#fff"/>
<text x="173.3" y="154.0" text-anchor="middle" font-family="Arial" font-size="10">0.85</text>
<rect x="196.7" y="126.7" width="46.7" height="46.7" fill="rgb(210,110,60)" stroke="#fff"/>
<text x="220.0" y="154.0" text-anchor="middle" font-family="Arial" font-size="10">1.00</text>
<rect x="243.3" y="126.7" width="46.7" height="46.7" fill="rgb(200,110,69)" stroke="#fff"/>
<text x="266.7" y="154.0" text-anchor="middle" font-family="Arial" font-size="10">0.87</text>
<rect x="290.0" y="126.7" width="46.7" height="46.7" fill="rgb(203,110,66)" stroke="#fff"/>
<text x="313.3" y="154.0" text-anchor="middle" font-family="Arial" font-size="10">0.91</text>
<rect x="336.7" y="126.7" width="46.7" height="46.7" fill="rgb(187,110,82)" stroke="#fff"/>
<text x="360.0" y="154.0" text-anchor="middle" font-family="Arial" font-size="10">0.70</text>
<rect x="383.3" y="126.7" width="46.7" height="46.7" fill="rgb(190,110,79)" stroke="#fff"/>
<text x="406.7" y="154.0" text-anchor="middle" font-family="Arial" font-size="10">0.73</text>
<rect x="430.0" y="126.7" width="46.7" height="46.7" fill="rgb(149,110,120)" stroke="#fff"/>
<text x="453.3" y="154.0" text-anchor="middle" font-family="Arial" font-size="10">0.19</text>
<rect x="476.7" y="126.7" width="46.7" height="46.7" fill="rgb(127,110,142)" stroke="#fff"/>
<text x="500.0" y="154.0" text-anchor="middle" font-family="Arial" font-size="10">-0.09</text>
<rect x="523.3" y="126.7" width="46.7" height="46.7" fill="rgb(136,110,133)" stroke="#fff"/>
<text x="546.7" y="154.0" text-anchor="middle" font-family="Arial" font-size="10">0.02</text>
<text x="142" y="201.7" text-anchor="end" font-family="Arial" font-size="11">land_area_m2</text>
<text x="266.7" y="72" text-anchor="middle" font-family="Arial" font-size="10" transform="rotate(-45 266.7 72)">land_area_m2</text>
<rect x="150.0" y="173.3" width="46.7" height="46.7" fill="rgb(189,110,80)" stroke="#fff"/>
<text x="173.3" y="200.7" text-anchor="middle" font-family="Arial" font-size="10">0.72</text>
<rect x="196.7" y="173.3" width="46.7" height="46.7" fill="rgb(200,110,69)" stroke="#fff"/>
<text x="220.0" y="200.7" text-anchor="middle" font-family="Arial" font-size="10">0.87</text>
<rect x="243.3" y="173.3" width="46.7" height="46.7" fill="rgb(210,110,60)" stroke="#fff"/>
<text x="266.7" y="200.7" text-anchor="middle" font-family="Arial" font-size="10">1.00</text>
<rect x="290.0" y="173.3" width="46.7" height="46.7" fill="rgb(192,110,77)" stroke="#fff"/>
<text x="313.3" y="200.7" text-anchor="middle" font-family="Arial" font-size="10">0.76</text>
<rect x="336.7" y="173.3" width="46.7" height="46.7" fill="rgb(178,110,91)" stroke="#fff"/>
<text x="360.0" y="200.7" text-anchor="middle" font-family="Arial" font-size="10">0.58</text>
<rect x="383.3" y="173.3" width="46.7" height="46.7" fill="rgb(178,110,91)" stroke="#fff"/>
<text x="406.7" y="200.7" text-anchor="middle" font-family="Arial" font-size="10">0.58</text>
<rect x="430.0" y="173.3" width="46.7" height="46.7" fill="rgb(143,110,126)" stroke="#fff"/>
<text x="453.3" y="200.7" text-anchor="middle" font-family="Arial" font-size="10">0.11</text>
<rect x="476.7" y="173.3" width="46.7" height="46.7" fill="rgb(128,110,141)" stroke="#fff"/>
<text x="500.0" y="200.7" text-anchor="middle" font-family="Arial" font-size="10">-0.09</text>
<rect x="523.3" y="173.3" width="46.7" height="46.7" fill="rgb(135,110,134)" stroke="#fff"/>
<text x="546.7" y="200.7" text-anchor="middle" font-family="Arial" font-size="10">0.01</text>
<text x="142" y="248.3" text-anchor="end" font-family="Arial" font-size="11">bedrooms</text>
<text x="313.3" y="72" text-anchor="middle" font-family="Arial" font-size="10" transform="rotate(-45 313.3 72)">bedrooms</text>
<rect x="150.0" y="220.0" width="46.7" height="46.7" fill="rgb(194,110,75)" stroke="#fff"/>
<text x="173.3" y="247.3" text-anchor="middle" font-family="Arial" font-size="10">0.80</text>
<rect x="196.7" y="220.0" width="46.7" height="46.7" fill="rgb(203,110,66)" stroke="#fff"/>
<text x="220.0" y="247.3" text-anchor="middle" font-family="Arial" font-size="10">0.91</text>
<rect x="243.3" y="220.0" width="46.7" height="46.7" fill="rgb(192,110,77)" stroke="#fff"/>
<text x="266.7" y="247.3" text-anchor="middle" font-family="Arial" font-size="10">0.76</text>
<rect x="290.0" y="220.0" width="46.7" height="46.7" fill="rgb(210,110,60)" stroke="#fff"/>
<text x="313.3" y="247.3" text-anchor="middle" font-family="Arial" font-size="10">1.00</text>
<rect x="336.7" y="220.0" width="46.7" height="46.7" fill="rgb(192,110,77)" stroke="#fff"/>
<text x="360.0" y="247.3" text-anchor="middle" font-family="Arial" font-size="10">0.77</text>
<rect x="383.3" y="220.0" width="46.7" height="46.7" fill="rgb(187,110,82)" stroke="#fff"/>
<text x="406.7" y="247.3" text-anchor="middle" font-family="Arial" font-size="10">0.70</text>
<rect x="430.0" y="220.0" width="46.7" height="46.7" fill="rgb(148,110,121)" stroke="#fff"/>
<text x="453.3" y="247.3" text-anchor="middle" font-family="Arial" font-size="10">0.19</text>
<rect x="476.7" y="220.0" width="46.7" height="46.7" fill="rgb(126,110,143)" stroke="#fff"/>
<text x="500.0" y="247.3" text-anchor="middle" font-family="Arial" font-size="10">-0.11</text>
<rect x="523.3" y="220.0" width="46.7" height="46.7" fill="rgb(133,110,136)" stroke="#fff"/>
<text x="546.7" y="247.3" text-anchor="middle" font-family="Arial" font-size="10">-0.02</text>
<text x="142" y="295.0" text-anchor="end" font-family="Arial" font-size="11">bathrooms</text>
<text x="360.0" y="72" text-anchor="middle" font-family="Arial" font-size="10" transform="rotate(-45 360.0 72)">bathrooms</text>
<rect x="150.0" y="266.7" width="46.7" height="46.7" fill="rgb(187,110,82)" stroke="#fff"/>
<text x="173.3" y="294.0" text-anchor="middle" font-family="Arial" font-size="10">0.70</text>
<rect x="196.7" y="266.7" width="46.7" height="46.7" fill="rgb(187,110,82)" stroke="#fff"/>
<text x="220.0" y="294.0" text-anchor="middle" font-family="Arial" font-size="10">0.70</text>
<rect x="243.3" y="266.7" width="46.7" height="46.7" fill="rgb(178,110,91)" stroke="#fff"/>
<text x="266.7" y="294.0" text-anchor="middle" font-family="Arial" font-size="10">0.58</text>
<rect x="290.0" y="266.7" width="46.7" height="46.7" fill="rgb(192,110,77)" stroke="#fff"/>
<text x="313.3" y="294.0" text-anchor="middle" font-family="Arial" font-size="10">0.77</text>
<rect x="336.7" y="266.7" width="46.7" height="46.7" fill="rgb(210,110,60)" stroke="#fff"/>
<text x="360.0" y="294.0" text-anchor="middle" font-family="Arial" font-size="10">1.00</text>
<rect x="383.3" y="266.7" width="46.7" height="46.7" fill="rgb(176,110,93)" stroke="#fff"/>
<text x="406.7" y="294.0" text-anchor="middle" font-family="Arial" font-size="10">0.55</text>
<rect x="430.0" y="266.7" width="46.7" height="46.7" fill="rgb(146,110,123)" stroke="#fff"/>
<text x="453.3" y="294.0" text-anchor="middle" font-family="Arial" font-size="10">0.15</text>
<rect x="476.7" y="266.7" width="46.7" height="46.7" fill="rgb(132,110,137)" stroke="#fff"/>
<text x="500.0" y="294.0" text-anchor="middle" font-family="Arial" font-size="10">-0.04</text>
<rect x="523.3" y="266.7" width="46.7" height="46.7" fill="rgb(132,110,137)" stroke="#fff"/>
<text x="546.7" y="294.0" text-anchor="middle" font-family="Arial" font-size="10">-0.04</text>
<text x="142" y="341.7" text-anchor="end" font-family="Arial" font-size="11">parking_spaces</text>
<text x="406.7" y="72" text-anchor="middle" font-family="Arial" font-size="10" transform="rotate(-45 406.7 72)">parking_spaces</text>
<rect x="150.0" y="313.3" width="46.7" height="46.7" fill="rgb(181,110,88)" stroke="#fff"/>
<text x="173.3" y="340.7" text-anchor="middle" font-family="Arial" font-size="10">0.62</text>
<rect x="196.7" y="313.3" width="46.7" height="46.7" fill="rgb(190,110,79)" stroke="#fff"/>
<text x="220.0" y="340.7" text-anchor="middle" font-family="Arial" font-size="10">0.73</text>
<rect x="243.3" y="313.3" width="46.7" height="46.7" fill="rgb(178,110,91)" stroke="#fff"/>
<text x="266.7" y="340.7" text-anchor="middle" font-family="Arial" font-size="10">0.58</text>
<rect x="290.0" y="313.3" width="46.7" height="46.7" fill="rgb(187,110,82)" stroke="#fff"/>
<text x="313.3" y="340.7" text-anchor="middle" font-family="Arial" font-size="10">0.70</text>
<rect x="336.7" y="313.3" width="46.7" height="46.7" fill="rgb(176,110,93)" stroke="#fff"/>
<text x="360.0" y="340.7" text-anchor="middle" font-family="Arial" font-size="10">0.55</text>
<rect x="383.3" y="313.3" width="46.7" height="46.7" fill="rgb(210,110,60)" stroke="#fff"/>
<text x="406.7" y="340.7" text-anchor="middle" font-family="Arial" font-size="10">1.00</text>
<rect x="430.0" y="313.3" width="46.7" height="46.7" fill="rgb(141,110,128)" stroke="#fff"/>
<text x="453.3" y="340.7" text-anchor="middle" font-family="Arial" font-size="10">0.08</text>
<rect x="476.7" y="313.3" width="46.7" height="46.7" fill="rgb(128,110,141)" stroke="#fff"/>
<text x="500.0" y="340.7" text-anchor="middle" font-family="Arial" font-size="10">-0.09</text>
<rect x="523.3" y="313.3" width="46.7" height="46.7" fill="rgb(136,110,133)" stroke="#fff"/>
<text x="546.7" y="340.7" text-anchor="middle" font-family="Arial" font-size="10">0.01</text>
<text x="142" y="388.3" text-anchor="end" font-family="Arial" font-size="11">age_years</text>
<text x="453.3" y="72" text-anchor="middle" font-family="Arial" font-size="10" transform="rotate(-45 453.3 72)">age_years</text>
<rect x="150.0" y="360.0" width="46.7" height="46.7" fill="rgb(148,110,121)" stroke="#fff"/>
<text x="173.3" y="387.3" text-anchor="middle" font-family="Arial" font-size="10">0.18</text>
<rect x="196.7" y="360.0" width="46.7" height="46.7" fill="rgb(149,110,120)" stroke="#fff"/>
<text x="220.0" y="387.3" text-anchor="middle" font-family="Arial" font-size="10">0.19</text>
<rect x="243.3" y="360.0" width="46.7" height="46.7" fill="rgb(143,110,126)" stroke="#fff"/>
<text x="266.7" y="387.3" text-anchor="middle" font-family="Arial" font-size="10">0.11</text>
<rect x="290.0" y="360.0" width="46.7" height="46.7" fill="rgb(148,110,121)" stroke="#fff"/>
<text x="313.3" y="387.3" text-anchor="middle" font-family="Arial" font-size="10">0.19</text>
<rect x="336.7" y="360.0" width="46.7" height="46.7" fill="rgb(146,110,123)" stroke="#fff"/>
<text x="360.0" y="387.3" text-anchor="middle" font-family="Arial" font-size="10">0.15</text>
<rect x="383.3" y="360.0" width="46.7" height="46.7" fill="rgb(141,110,128)" stroke="#fff"/>
<text x="406.7" y="387.3" text-anchor="middle" font-family="Arial" font-size="10">0.08</text>
<rect x="430.0" y="360.0" width="46.7" height="46.7" fill="rgb(210,110,60)" stroke="#fff"/>
<text x="453.3" y="387.3" text-anchor="middle" font-family="Arial" font-size="10">1.00</text>
<rect x="476.7" y="360.0" width="46.7" height="46.7" fill="rgb(135,110,134)" stroke="#fff"/>
<text x="500.0" y="387.3" text-anchor="middle" font-family="Arial" font-size="10">0.01</text>
<rect x="523.3" y="360.0" width="46.7" height="46.7" fill="rgb(132,110,137)" stroke="#fff"/>
<text x="546.7" y="387.3" text-anchor="middle" font-family="Arial" font-size="10">-0.03</text>
<text x="142" y="435.0" text-anchor="end" font-family="Arial" font-size="11">distance_to_center_km</text>
<text x="500.0" y="72" text-anchor="middle" font-family="Arial" font-size="10" transform="rotate(-45 500.0 72)">distance_to_center_km</text>
<rect x="150.0" y="406.7" width="46.7" height="46.7" fill="rgb(132,110,137)" stroke="#fff"/>
<text x="173.3" y="434.0" text-anchor="middle" font-family="Arial" font-size="10">-0.03</text>
<rect x="196.7" y="406.7" width="46.7" height="46.7" fill="rgb(127,110,142)" stroke="#fff"/>
<text x="220.0" y="434.0" text-anchor="middle" font-family="Arial" font-size="10">-0.09</text>
<rect x="243.3" y="406.7" width="46.7" height="46.7" fill="rgb(128,110,141)" stroke="#fff"/>
<text x="266.7" y="434.0" text-anchor="middle" font-family="Arial" font-size="10">-0.09</text>
<rect x="290.0" y="406.7" width="46.7" height="46.7" fill="rgb(126,110,143)" stroke="#fff"/>
<text x="313.3" y="434.0" text-anchor="middle" font-family="Arial" font-size="10">-0.11</text>
<rect x="336.7" y="406.7" width="46.7" height="46.7" fill="rgb(132,110,137)" stroke="#fff"/>
<text x="360.0" y="434.0" text-anchor="middle" font-family="Arial" font-size="10">-0.04</text>
<rect x="383.3" y="406.7" width="46.7" height="46.7" fill="rgb(128,110,141)" stroke="#fff"/>
<text x="406.7" y="434.0" text-anchor="middle" font-family="Arial" font-size="10">-0.09</text>
<rect x="430.0" y="406.7" width="46.7" height="46.7" fill="rgb(135,110,134)" stroke="#fff"/>
<text x="453.3" y="434.0" text-anchor="middle" font-family="Arial" font-size="10">0.01</text>
<rect x="476.7" y="406.7" width="46.7" height="46.7" fill="rgb(210,110,60)" stroke="#fff"/>
<text x="500.0" y="434.0" text-anchor="middle" font-family="Arial" font-size="10">1.00</text>
<rect x="523.3" y="406.7" width="46.7" height="46.7" fill="rgb(104,110,165)" stroke="#fff"/>
<text x="546.7" y="434.0" text-anchor="middle" font-family="Arial" font-size="10">-0.41</text>
<text x="142" y="481.7" text-anchor="end" font-family="Arial" font-size="11">amenities_1km</text>
<text x="546.7" y="72" text-anchor="middle" font-family="Arial" font-size="10" transform="rotate(-45 546.7 72)">amenities_1km</text>
<rect x="150.0" y="453.3" width="46.7" height="46.7" fill="rgb(141,110,128)" stroke="#fff"/>
<text x="173.3" y="480.7" text-anchor="middle" font-family="Arial" font-size="10">0.09</text>
<rect x="196.7" y="453.3" width="46.7" height="46.7" fill="rgb(136,110,133)" stroke="#fff"/>
<text x="220.0" y="480.7" text-anchor="middle" font-family="Arial" font-size="10">0.02</text>
<rect x="243.3" y="453.3" width="46.7" height="46.7" fill="rgb(135,110,134)" stroke="#fff"/>
<text x="266.7" y="480.7" text-anchor="middle" font-family="Arial" font-size="10">0.01</text>
<rect x="290.0" y="453.3" width="46.7" height="46.7" fill="rgb(133,110,136)" stroke="#fff"/>
<text x="313.3" y="480.7" text-anchor="middle" font-family="Arial" font-size="10">-0.02</text>
<rect x="336.7" y="453.3" width="46.7" height="46.7" fill="rgb(132,110,137)" stroke="#fff"/>
<text x="360.0" y="480.7" text-anchor="middle" font-family="Arial" font-size="10">-0.04</text>
<rect x="383.3" y="453.3" width="46.7" height="46.7" fill="rgb(136,110,133)" stroke="#fff"/>
<text x="406.7" y="480.7" text-anchor="middle" font-family="Arial" font-size="10">0.01</text>
<rect x="430.0" y="453.3" width="46.7" height="46.7" fill="rgb(132,110,137)" stroke="#fff"/>
<text x="453.3" y="480.7" text-anchor="middle" font-family="Arial" font-size="10">-0.03</text>
<rect x="476.7" y="453.3" width="46.7" height="46.7" fill="rgb(104,110,165)" stroke="#fff"/>
<text x="500.0" y="480.7" text-anchor="middle" font-family="Arial" font-size="10">-0.41</text>
<rect x="523.3" y="453.3" width="46.7" height="46.7" fill="rgb(210,110,60)" stroke="#fff"/>
<text x="546.7" y="480.7" text-anchor="middle" font-family="Arial" font-size="10">1.00</text>
</svg>
